<?xml version="1.0" encoding="utf-8"?>
<svg viewBox="0 0 500 500" width="500" height="500" xmlns="http://www.w3.org/2000/svg">
  <rect style="fill: rgb(26, 125, 86);" x="0" y="0" width="500" height="500" rx="64" ry="64"/>
  <path d="M 336.602 381.958 C 335.14 382.022 333.647 382.055 332.13 382.055 C 322.26 382.055 313.327 381.09 305.331 379.16 C 297.334 377.24 290.938 375.12 286.145 372.798 C 281.342 370.488 274.41 366.891 265.352 362.007 C 256.283 357.123 248.286 353.01 241.359 349.666 C 250.418 347.873 259.948 343.759 269.947 337.324 C 279.947 330.901 289.542 322.552 298.733 312.277 C 307.935 301.993 315.598 289.202 321.725 273.908 C 327.863 258.612 330.931 242.356 330.931 225.142 C 330.931 201.493 325.199 179.641 313.733 159.59 C 302.267 139.538 286.67 123.667 266.944 111.979 C 247.218 100.281 225.824 94.432 202.761 94.432 C 179.696 94.432 158.369 100.281 138.774 111.979 C 119.18 123.667 103.654 139.538 92.199 159.59 C 80.733 179.641 75 201.493 75 225.142 C 75 242.106 78.2 258.232 84.6 273.526 C 90.988 288.812 99.055 301.599 108.79 311.882 C 118.517 322.167 128.511 330.646 138.774 337.324 C 149.046 344.012 158.98 348.769 168.576 351.597 C 177.635 354.423 188.029 358.985 199.758 365.283 C 211.496 371.58 221.764 377.62 230.561 383.4 C 239.357 389.191 249.417 394.334 260.742 398.827 C 272.075 403.32 282.676 405.568 292.546 405.568 C 313.878 405.568 333.902 401.79 352.624 394.237 C 364.687 390.373 375.022 383.239 383.627 372.842 C 397.326 356.279 404.177 334.966 404.177 308.898 L 404.177 202.185 C 404.177 192.143 404.909 184.393 406.377 178.935 C 406.74 177.697 409.344 176.377 414.186 174.971 C 419.019 173.558 422.26 172.852 423.908 172.852 C 424.635 172.852 425 171.357 425 168.363 C 425 167.135 424.726 165.727 424.181 164.138 C 402.262 165.19 390.664 165.717 389.39 165.717 C 385.731 165.717 381.803 165.629 377.606 165.453 C 373.4 165.278 368.737 165.059 363.621 164.795 C 358.507 164.531 354.579 164.312 351.838 164.138 C 351.473 164.487 351.292 166.072 351.292 168.889 C 351.292 171.531 351.661 172.852 352.399 172.852 C 355.321 172.852 359.016 173.339 363.486 174.315 C 367.964 175.279 370.476 176.819 371.023 178.935 C 372.308 183.508 372.95 190.724 372.95 200.591 L 372.95 311.018 C 372.95 327.991 371.816 341.999 369.549 353.042 L 369.526 353.04 C 369.515 353.14 369.501 353.24 369.49 353.338 C 368.782 356.731 367.97 359.838 367.051 362.665 C 366.857 363.257 366.661 363.836 366.462 364.397 C 363.987 369.683 360.223 373.561 355.253 376.536 C 351.243 378.937 346.828 380.457 341.395 381.364 C 339.825 381.628 338.244 381.823 336.602 381.958 Z M 234.959 125.271 C 246.152 132.211 255.014 141.469 261.546 153.04 C 268.078 164.601 272.945 177.067 276.15 190.443 C 279.345 203.807 280.943 217.816 280.943 232.467 C 280.943 260.738 274.679 284.962 262.153 305.141 C 249.614 325.32 232.015 335.41 209.358 335.41 C 190.693 335.41 174.764 329.111 161.569 316.517 C 148.374 303.923 138.977 288.885 133.376 271.407 C 127.784 253.929 124.988 235.674 124.988 216.646 C 124.988 188.629 131.186 164.664 143.583 144.748 C 155.977 124.832 173.637 114.874 196.559 114.874 C 210.955 114.874 223.755 118.34 234.959 125.271 Z" style="fill: rgb(255, 255, 255);"/>
</svg>